<svg width="30" height="30" viewBox="0 0 30 30" fill="none" xmlns="http://www.w3.org/2000/svg">
<path d="M20.6444 2C24.9556 2 27.5 4.48074 27.5 8.72725H22.2111V8.77058C19.7565 8.77058 17.7667 10.7106 17.7667 13.1038C17.7667 15.4969 19.7565 17.4369 22.2111 17.4369H27.5V17.8269C27.5 22.0193 24.9556 24.5 20.6444 24.5H9.35556C5.04444 24.5 2.5 22.0193 2.5 17.8269V8.67309C2.5 4.48074 5.04444 2 9.35556 2H20.6444ZM26.5667 10.5905C27.0821 10.5905 27.5 10.9979 27.5 11.5005V14.6637C27.494 15.1638 27.0796 15.5678 26.5667 15.5737H22.3111C21.0685 15.59 19.9819 14.7605 19.7 13.5804C19.5589 12.8479 19.757 12.092 20.2413 11.5153C20.7257 10.9386 21.4467 10.6001 22.2111 10.5905H26.5667ZM22.8111 12.053H22.4C22.1476 12.0501 21.9045 12.1458 21.725 12.3188C21.5455 12.4918 21.4444 12.7277 21.4444 12.9738C21.4444 13.4901 21.8705 13.9103 22.4 13.9162H22.8111C23.3388 13.9162 23.7667 13.4991 23.7667 12.9846C23.7667 12.4701 23.3388 12.053 22.8111 12.053ZM15.4778 6.86399H8.42222C7.89879 6.86395 7.47275 7.27449 7.46667 7.78479C7.46667 8.30109 7.89269 8.72132 8.42222 8.72725H15.4778C16.0055 8.72725 16.4333 8.31015 16.4333 7.79562C16.4333 7.28109 16.0055 6.86399 15.4778 6.86399Z" fill="black"/>
</svg>
