<svg width="30" height="30" viewBox="0 0 30 30" fill="none" xmlns="http://www.w3.org/2000/svg">
<path d="M20.6444 3.75C24.9556 3.75 27.5 6.23074 27.5 10.4773H22.2111V10.5206C19.7565 10.5206 17.7667 12.4606 17.7667 14.8538C17.7667 17.2469 19.7565 19.1869 22.2111 19.1869H27.5V19.5769C27.5 23.7693 24.9556 26.25 20.6444 26.25H9.35556C5.04445 26.25 2.5 23.7693 2.5 19.5769V10.4231C2.5 6.23074 5.04445 3.75 9.35556 3.75H20.6444ZM26.5667 12.3405C27.0821 12.3405 27.5 12.7479 27.5 13.2505V16.4137C27.494 16.9138 27.0796 17.3178 26.5667 17.3237H22.3111C21.0685 17.34 19.9819 16.5105 19.7 15.3304C19.5589 14.5979 19.757 13.842 20.2413 13.2653C20.7257 12.6886 21.4467 12.3501 22.2111 12.3405H26.5667ZM22.8111 13.803H22.4C22.1476 13.8001 21.9045 13.8958 21.725 14.0688C21.5455 14.2418 21.4444 14.4777 21.4444 14.7238C21.4444 15.2401 21.8705 15.6603 22.4 15.6662H22.8111C23.3389 15.6662 23.7667 15.2491 23.7667 14.7346C23.7667 14.2201 23.3389 13.803 22.8111 13.803ZM15.4778 8.61399H8.42222C7.89879 8.61395 7.47275 9.02449 7.46667 9.53479C7.46667 10.0511 7.89269 10.4713 8.42222 10.4773H15.4778C16.0055 10.4773 16.4333 10.0601 16.4333 9.54562C16.4333 9.03109 16.0055 8.61399 15.4778 8.61399Z" fill="white"/>
</svg>
