<svg width="27" height="26" viewBox="0 0 27 26" fill="none" xmlns="http://www.w3.org/2000/svg">
<path fill-rule="evenodd" clip-rule="evenodd" d="M20.8364 7.1595C20.4738 7.16722 20.1244 7.29701 19.8447 7.52785L9.99982 15.4333L6.67517 10.9973C6.54805 10.828 6.38881 10.6852 6.20656 10.5774C6.0243 10.4696 5.82259 10.3987 5.61294 10.3688C5.4033 10.339 5.18983 10.3508 4.98473 10.4035C4.77963 10.4561 4.58691 10.5486 4.41758 10.6758C4.24825 10.803 4.10563 10.9622 3.99786 11.1445C3.89009 11.3268 3.81928 11.5285 3.78948 11.7382C3.75968 11.9478 3.77147 12.1614 3.82418 12.3665C3.87689 12.5716 3.96948 12.7643 4.09667 12.9336L8.41935 18.6982C8.54907 18.871 8.71221 19.0161 8.89907 19.1246C9.08594 19.2331 9.29272 19.303 9.50712 19.33C9.72153 19.357 9.93917 19.3406 10.1471 19.2818C10.3551 19.223 10.5491 19.1231 10.7176 18.9878L21.8628 10.0402C22.129 9.83165 22.3228 9.54471 22.4169 9.21989C22.511 8.89507 22.5005 8.54889 22.387 8.23033C22.2735 7.91177 22.0627 7.63697 21.7845 7.44482C21.5062 7.25266 21.1745 7.15278 20.8364 7.1595Z" fill="white"/>
</svg>
